<?xml version="1.0" encoding="utf-8"?>
<!-- Generator: Adobe Illustrator 25.4.1, SVG Export Plug-In . SVG Version: 6.00 Build 0)  -->
<svg version="1.1" id="Layer_1" xmlns="http://www.w3.org/2000/svg" xmlns:xlink="http://www.w3.org/1999/xlink" x="0px" y="0px"
	 viewBox="0 0 152 42" style="enable-background:new 0 0 152 42;" xml:space="preserve">
<path d="M42.41,5.35h6.99c1.78,0,3.08,0.48,3.92,1.3c0.82,0.71,1.18,1.66,1.18,2.6c0,0.36,0,0.82-0.11,1.18
	c-0.23,0.59-0.59,1.18-1.07,1.66c-0.23,0.23-0.48,0.36-0.71,0.48c0.82,0.23,1.55,0.71,2.14,1.3c0.48,0.59,0.71,1.3,0.71,2.37
	c0,0.59-0.11,1.3-0.36,1.78c-0.23,0.48-0.71,0.96-1.18,1.3c-0.59,0.36-1.18,0.59-1.78,0.82c-0.71,0.23-1.55,0.23-2.37,0.23h-7.24
	V5.31h-0.11C42.41,5.31,42.41,5.35,42.41,5.35z M48.81,11.5c0.59,0,1.18-0.11,1.78-0.36c0.48-0.23,0.71-0.71,0.71-1.18
	S51.07,9,50.7,8.77c-0.48-0.36-1.07-0.48-1.66-0.36h-3.32v3.19h3.08v-0.1C48.79,11.5,48.81,11.5,48.81,11.5z M49.64,17.56
	c0.59,0,1.18-0.11,1.78-0.36c0.48-0.23,0.71-0.71,0.59-1.3c0-0.48-0.23-0.96-0.59-1.18c-0.36-0.23-1.07-0.48-1.89-0.48H45.6v3.32
	C45.6,17.56,49.64,17.56,49.64,17.56z M59.59,5.35h3.32v15.17h-3.32V5.35L59.59,5.35z M68.01,5.35h3.08l7.11,9.36V5.35h3.3v15.17
	h-2.83l-7.47-9.61v9.61h-3.19L68.01,5.35L68.01,5.35z M91.59,5.24h3.08l6.52,15.28h-3.44l-1.41-3.44h-6.4l-1.41,3.44h-3.44
	C85.07,20.52,91.59,5.24,91.59,5.24z M95.14,14.24l-2.01-4.97l-2.01,4.97H95.14z M104.73,5.35h3.08l7.11,9.36V5.35h3.32v15.17h-2.85
	l-7.36-9.61v9.61h-3.3V5.35L104.73,5.35z M130.32,20.75c-1.07,0-2.14-0.23-3.08-0.59c-1.89-0.82-3.32-2.25-4.15-4.15
	c-0.36-0.96-0.59-2.01-0.59-3.08c0-2.01,0.82-4.03,2.25-5.56c0.71-0.71,1.55-1.3,2.48-1.66c1.07-0.48,2.14-0.59,3.19-0.59
	c0.59,0,1.3,0,1.89,0.11c0.59,0.11,1.07,0.23,1.55,0.48c0.48,0.23,0.95,0.48,1.3,0.71c0.36,0.23,0.82,0.59,1.18,0.96l-2.01,2.48
	c-0.59-0.48-1.18-0.96-1.78-1.3c-0.59-0.34-1.3-0.48-2.01-0.48c-0.59,0-1.18,0.11-1.78,0.36c-0.59,0.23-1.07,0.59-1.41,1.07
	c-0.34,0.48-0.71,0.96-0.95,1.55c-0.23,0.59-0.36,1.18-0.36,1.78c0,0.59,0.11,1.3,0.36,1.89c0.25,0.59,0.48,1.07,0.95,1.55
	c0.82,0.96,2.01,1.41,3.19,1.41c0.71,0,1.55-0.11,2.25-0.48c0.59-0.36,1.3-0.82,1.78-1.3l2.12,2.12l-1.18,1.18
	c-0.48,0.36-0.95,0.59-1.41,0.82c-0.48,0.23-1.07,0.48-1.66,0.59C131.61,20.75,130.91,20.75,130.32,20.75L130.32,20.75z
	 M140.52,5.35h11.37v2.96h-8.18v3.08h7.22v2.96h-7.22v3.21H152v2.96h-11.48V5.35L140.52,5.35z M46.67,35.44
	c-0.82,0-1.66-0.11-2.37-0.48c-0.71-0.23-1.41-0.71-2.14-1.3l1.18-1.3c0.48,0.48,0.96,0.71,1.55,1.07c0.59,0.23,1.18,0.36,1.78,0.36
	c0.48,0,0.96-0.11,1.41-0.36c0.36-0.23,0.48-0.59,0.48-0.96c0-0.11,0-0.36-0.11-0.48c-0.11-0.11-0.23-0.36-0.36-0.48
	c-0.23-0.11-0.48-0.23-0.71-0.36c-0.36-0.11-0.82-0.23-1.18-0.36c-0.48-0.11-1.07-0.23-1.55-0.48c-0.36-0.11-0.82-0.36-1.07-0.59
	c-0.23-0.23-0.48-0.48-0.71-0.82c-0.23-0.48-0.23-0.96-0.23-1.3c0-0.48,0.11-0.82,0.23-1.3c0.11-0.36,0.48-0.71,0.71-0.96
	c0.36-0.23,0.71-0.48,1.18-0.59c0.48-0.11,0.96-0.23,1.41-0.23c0.71,0,1.41,0.11,2.14,0.36c0.59,0.23,1.18,0.59,1.78,0.96
	l-0.96,1.41c-0.48-0.36-0.96-0.59-1.41-0.82c-0.48-0.23-0.96-0.23-1.41-0.23c-0.48,0-0.96,0.11-1.3,0.36
	c-0.23,0.23-0.48,0.59-0.48,0.96c0,0.23,0,0.36,0.11,0.59c0.11,0.11,0.23,0.36,0.36,0.48c0.23,0.11,0.48,0.23,0.82,0.36
	c0.36,0.11,0.71,0.23,1.3,0.36c0.48,0.11,0.96,0.23,1.55,0.48c0.36,0.11,0.71,0.36,1.07,0.59c0.23,0.23,0.48,0.59,0.59,0.82
	c0.11,0.36,0.23,0.71,0.23,1.18c0,0.48-0.11,0.96-0.23,1.3c-0.23,0.36-0.48,0.71-0.82,1.07c-0.36,0.23-0.71,0.48-1.18,0.59
	C47.74,35.33,47.15,35.44,46.67,35.44z M52.6,24.67h2.03l3.19,4.97l3.32-4.97h2.01v10.66h-1.89v-7.7l-3.32,4.97h-0.11l-3.31-4.97
	v7.7H52.6V24.67z M69.54,24.55h1.78l4.62,10.66h-2.01l-1.07-2.6H67.9l-1.07,2.6h-1.89L69.54,24.55z M72.27,31.07l-1.89-4.26
	l-1.78,4.26H72.27z M77.83,24.67h4.74c0.59,0,1.18,0.11,1.78,0.23c0.48,0.11,0.96,0.48,1.3,0.82c0.23,0.23,0.48,0.59,0.71,1.07
	c0.12,0.36,0.23,0.82,0.23,1.3c0,0.36-0.11,0.82-0.23,1.18c-0.11,0.36-0.36,0.59-0.48,0.96c-0.23,0.23-0.48,0.48-0.82,0.71
	c-0.36,0.23-0.71,0.36-1.07,0.48l2.85,4.03h-2.26l-2.6-3.67h-2.37v3.67h-1.89C77.72,35.44,77.83,24.67,77.83,24.67z M82.46,29.88
	c0.59,0,1.18-0.11,1.55-0.48c0.36-0.36,0.59-0.82,0.59-1.3c0-0.48-0.23-0.96-0.59-1.3c-0.48-0.36-1.07-0.48-1.66-0.48h-2.73v3.55
	H82.46z M91.46,26.33h-3.44v-1.66h8.65v1.66h-3.44v9h-1.89L91.46,26.33z M108.17,35.44c-0.71,0-1.41-0.11-2.14-0.48
	c-1.3-0.59-2.37-1.55-2.85-2.85c-0.23-0.71-0.48-1.41-0.36-2.14c0-0.71,0.11-1.41,0.36-2.14c0.48-1.3,1.55-2.37,2.85-2.96
	c0.71-0.23,1.41-0.48,2.25-0.48c0.48,0,0.96,0,1.3,0.11c0.36,0.11,0.71,0.23,1.07,0.36c0.36,0.11,0.59,0.36,0.95,0.48
	c0.23,0.23,0.59,0.48,0.82,0.71l-1.18,1.41c-0.36-0.36-0.82-0.71-1.3-0.96c-0.48-0.23-1.07-0.36-1.66-0.36
	c-0.48,0-0.96,0.11-1.41,0.23c-0.48,0.23-0.82,0.48-1.19,0.82c-0.36,0.36-0.59,0.71-0.71,1.18c-0.11,0.48-0.23,0.96-0.23,1.41
	c0,0.48,0.11,0.96,0.23,1.41c0.12,0.46,0.36,0.82,0.71,1.18c0.36,0.36,0.71,0.59,1.19,0.82c0.48,0.23,0.95,0.36,1.41,0.23
	c0.59,0,1.18-0.11,1.66-0.36c0.48-0.23,0.96-0.59,1.41-1.07l1.18,1.18c-0.23,0.23-0.59,0.59-0.82,0.82
	c-0.36,0.23-0.59,0.48-0.96,0.59c-0.36,0.11-0.71,0.36-1.18,0.36C109.11,35.44,108.63,35.44,108.17,35.44z M114.44,24.67h1.78v4.38
	h5.1v-4.38h1.89v10.66h-1.89v-4.51h-5.1v4.51h-1.78V24.67z M129.72,24.55h1.78l4.62,10.66h-2.01l-1.07-2.6h-4.97l-1.07,2.6h-1.89
	L129.72,24.55z M132.34,31.07l-1.78-4.26l-1.78,4.26C128.79,31.07,132.34,31.07,132.34,31.07z M138.02,24.67h1.91v10.66h-1.91V24.67
	z M142.75,24.67h1.66l5.69,7.34v-7.34H152v10.66h-1.55l-5.79-7.58v7.58h-1.91V24.67z M21.57,34.62v4.62l-4.03,2.37l-3.92-2.37v-4.62
	l3.92,2.37L21.57,34.62z M0,18.63L3.92,21v7.93l6.74,4.03v4.62L0,31.3V18.63z M35.08,18.63v12.69L24.3,37.6v-4.62l6.74-4.03v-7.93
	C31.05,21.02,35.08,18.63,35.08,18.63z M24.28,12.35l4.03,2.37v4.62l-6.74,4.03v8.04l-3.92,2.37l-3.9-2.37v-8.06l-6.99-4.03V14.7
	l4.03-2.37l6.74,4.03C17.54,16.36,24.28,12.35,24.28,12.35z M6.76,22.64l3.92,2.37v4.62l-3.92-2.37
	C6.76,27.27,6.76,22.64,6.76,22.64z M28.31,22.64v4.62l-3.92,2.37v-4.62L28.31,22.64z M3.92,8.31l4.03,2.37l-4.03,2.37v4.62L0,15.31
	v-4.62C0,10.68,3.92,8.31,3.92,8.31z M31.16,8.31l4.03,2.37v4.62l-4.03,2.37v-4.62l-3.92-2.37C27.24,10.68,31.16,8.31,31.16,8.31z
	 M17.54,8.31l4.03,2.37l-4.03,2.37l-3.92-2.37C13.62,10.68,17.54,8.31,17.54,8.31z M17.54,0.39l10.78,6.29L24.4,9.04l-6.74-4.03
	l-6.88,4.03L6.86,6.67L17.54,0.39z"/>
</svg>
