<svg xmlns="http://www.w3.org/2000/svg" width="152" height="42" aria-hidden="true" data-bbox="0 0 1939.23 526" data-type="color" viewBox="0 0 1939.23 526"><defs><style>#comp-la0bvinr svg [data-color=&quot;1&quot;]{fill:#fff}</style></defs><path fill="#F3BA2F" d="M541.112 63.374h89.211c22.668 0 39.243 6.093 49.967 16.574 10.481 9.019 15.112 21.206 15.112 33.149 0 4.632 0 10.481-1.462 15.113-2.925 7.556-7.556 15.112-13.65 21.205-2.925 2.925-6.093 4.631-9.018 6.094 10.481 2.925 19.743 9.018 27.299 16.575 6.094 7.556 9.019 16.574 9.019 30.224 0 7.556-1.463 16.574-4.632 22.668-2.925 6.094-9.018 12.187-15.112 16.575-7.556 4.631-15.112 7.556-22.668 10.481-9.018 2.925-19.743 2.925-30.224 2.925h-92.379V62.887h-1.463v.487Zm81.655 78.485c7.556 0 15.112-1.462 22.668-4.631 6.093-2.925 9.018-9.018 9.018-15.112 0-6.094-2.925-12.187-7.556-15.112-6.093-4.631-13.649-6.094-21.205-4.631H583.28v40.705h39.243v-1.219h.244Zm10.481 77.267c7.556 0 15.112-1.462 22.668-4.631 6.093-2.925 9.018-9.019 7.556-16.575 0-6.093-2.925-12.187-7.556-15.112-4.631-2.925-13.65-6.093-24.131-6.093h-49.967v42.411h51.43ZM760.239 63.373h42.412v193.533h-42.412V63.374Zm107.49 0h39.243l90.673 119.435V63.374h42.165v193.532h-36.07l-95.305-122.603v122.603h-40.706V63.374Zm300.781-1.462h39.24l83.12 194.995h-43.88l-18.03-43.873h-81.66l-18.03 43.873h-43.88l83.12-194.995Zm45.34 114.804-25.6-63.374-25.59 63.374h51.19Zm122.36-113.342h39.24l90.67 119.435V63.374h42.41v193.532h-36.31l-93.85-122.603v122.603h-42.16V63.374Zm326.37 196.459c-13.65 0-27.3-2.925-39.24-7.557-24.13-10.481-42.41-28.761-52.9-52.892-4.63-12.187-7.55-25.593-7.55-39.243 0-25.593 10.48-51.43 28.76-70.93 9.02-9.018 19.74-16.574 31.69-21.205 13.65-6.094 27.3-7.556 40.7-7.556 7.56 0 16.58 0 24.13 1.462 7.56 1.463 13.65 2.925 19.75 6.094 6.09 2.925 12.18 6.093 16.57 9.018 4.63 2.925 10.48 7.556 15.11 12.188l-25.59 31.686c-7.56-6.093-15.11-12.187-22.67-16.574-7.55-4.388-16.57-6.094-25.59-6.094-7.56 0-15.11 1.463-22.67 4.631-7.56 2.925-13.65 7.556-18.04 13.65-4.38 6.093-9.02 12.187-12.18 19.743-2.93 7.556-4.63 15.112-4.63 22.668 0 7.556 1.46 16.575 4.63 24.131 3.16 7.556 6.09 13.65 12.18 19.743 10.48 12.188 25.6 18.037 40.71 18.037 9.02 0 19.74-1.462 28.76-6.093 7.56-4.631 16.58-10.481 22.67-16.575l27.05 27.056-15.11 15.112c-6.09 4.631-12.18 7.556-18.03 10.481-6.1 2.925-13.65 6.094-21.21 7.556-10.73 1.463-19.74 1.463-27.3 1.463Zm130.16-196.459h145.03v37.781h-104.33v39.243h92.14v37.78h-92.14v40.949h105.79v37.78h-146.49V63.374ZM595.468 447.27c-10.481 0-21.206-1.462-30.224-6.093-9.019-2.925-18.037-9.019-27.3-16.575l15.112-16.575c6.094 6.094 12.188 9.019 19.744 13.65 7.556 2.925 15.112 4.631 22.668 4.631 6.094 0 12.187-1.462 18.037-4.631 4.631-2.925 6.094-7.556 6.094-12.187 0-1.463 0-4.631-1.463-6.094-1.462-1.462-2.925-4.631-4.631-6.093-2.925-1.463-6.094-2.925-9.019-4.631-4.631-1.463-10.48-2.925-15.112-4.632-6.093-1.462-13.649-2.925-19.743-6.093-4.631-1.463-10.481-4.631-13.65-7.556-2.925-2.925-6.093-6.094-9.018-10.481-2.925-6.094-2.925-12.187-2.925-16.575 0-6.093 1.462-10.481 2.925-16.575 1.462-4.631 6.093-9.018 9.018-12.187 4.632-2.925 9.019-6.093 15.113-7.556 6.093-1.462 12.187-2.925 18.037-2.925 9.018 0 18.037 1.463 27.299 4.631 7.556 2.925 15.112 7.556 22.668 12.188l-12.187 18.037c-6.094-4.631-12.187-7.556-18.037-10.481-6.094-2.925-12.187-2.925-18.037-2.925-6.094 0-12.187 1.462-16.575 4.631-2.925 2.925-6.093 7.556-6.093 12.187 0 2.925 0 4.631 1.462 7.556 1.463 1.463 2.925 4.631 4.631 6.094 2.925 1.462 6.094 2.925 10.481 4.631 4.631 1.462 9.019 2.925 16.575 4.631 6.093 1.463 12.187 2.925 19.743 6.094 4.631 1.462 9.019 4.631 13.65 7.556 2.925 2.925 6.093 7.556 7.556 10.481 1.462 4.631 2.925 9.018 2.925 15.112 0 6.094-1.463 12.187-2.925 16.574-2.925 4.632-6.094 9.019-10.481 13.65-4.631 2.925-9.019 6.094-15.112 7.556-7.556-.487-15.112.975-21.206.975Zm75.559-137.471h25.837l40.705 63.374 42.412-63.374h25.593v136.009h-24.131v-98.229l-42.411 63.374h-1.463l-42.167-63.374v98.229h-24.375V309.799Zm216.203-1.463h22.668l58.986 136.01h-25.593l-13.65-33.15h-63.373l-13.65 33.15h-24.131l58.743-136.01Zm34.855 83.117-24.131-54.355-22.668 54.355h46.799Zm70.928-81.654h60.447c7.56 0 15.11 1.462 22.67 2.925 6.09 1.462 12.19 6.094 16.57 10.481 2.93 2.925 6.1 7.556 9.02 13.65 1.47 4.631 2.93 10.481 2.93 16.574 0 4.631-1.46 10.481-2.93 15.112-1.46 4.632-4.63 7.556-6.09 12.188-2.93 2.925-6.09 6.093-10.48 9.018-4.63 2.925-9.02 4.631-13.65 6.094l36.32 51.43h-28.77l-33.14-46.799h-30.23v46.799h-24.129l1.462-137.472ZM1052 376.341c7.56 0 15.11-1.462 19.74-6.093 4.63-4.632 7.56-10.481 7.56-16.575 0-6.094-2.93-12.187-7.56-16.575-6.09-4.631-13.65-6.093-21.2-6.093h-34.86v45.336H1052Zm114.8-45.336h-43.87v-21.206h110.42v21.206h-43.88v114.803h-24.13l1.46-114.803Zm213.28 116.265c-9.02 0-18.04-1.462-27.3-6.093-16.57-7.556-30.22-19.743-36.32-36.318-2.92-9.019-6.09-18.037-4.63-27.299 0-9.019 1.46-18.038 4.63-27.3 6.1-16.574 19.75-30.224 36.32-37.78 9.02-2.925 18.04-6.094 28.76-6.094 6.1 0 12.19 0 16.58 1.463 4.63 1.462 9.02 2.925 13.65 4.631 4.63 1.462 7.55 4.631 12.18 6.093 2.93 2.925 7.56 6.094 10.48 9.019l-15.11 18.037c-4.63-4.631-10.48-9.018-16.57-12.187-6.1-2.925-13.65-4.631-21.21-4.631-6.09 0-12.19 1.462-18.03 2.925-6.1 2.925-10.49 6.093-15.12 10.481-4.63 4.631-7.55 9.018-9.02 15.112-1.46 6.093-2.92 12.187-2.92 18.037 0 6.093 1.46 12.187 2.92 18.037 1.47 5.85 4.64 10.481 9.02 15.112 4.63 4.631 9.02 7.556 15.12 10.481 6.09 2.925 12.18 4.631 18.03 2.925 7.56 0 15.11-1.462 21.21-4.631 6.09-2.925 12.19-7.556 18.04-13.65l15.11 15.112c-2.93 2.925-7.56 7.556-10.48 10.481-4.63 2.925-7.56 6.094-12.19 7.556-4.63 1.463-9.02 4.632-15.11 4.632-6.1 5.849-12.19 5.849-18.04 5.849Zm79.95-137.471h22.67v55.817h65.08v-55.817h24.13v136.009h-24.13v-57.523h-65.08v57.523h-22.67V309.799Zm194.99-1.463h22.67l58.99 136.01h-25.6l-13.64-33.15h-63.38l-13.65 33.15h-24.13l58.74-136.01Zm33.4 83.117-22.67-54.355-22.67 54.355h45.34Zm72.39-81.654h24.37v136.009h-24.37V309.799Zm60.45 0h21.2l72.64 93.598v-93.598h24.13v136.009h-19.74l-73.86-96.766v96.766h-24.37V309.799ZM275.187 436.79v58.986L223.757 526l-49.967-30.224V436.79l49.967 30.224 51.43-30.224ZM0 232.776 49.968 263v101.154l86.041 51.43v58.986L0 394.378V232.776Zm447.514 0v161.846l-137.471 80.192v-58.986l86.041-51.43V263.244l51.43-30.468Zm-137.715-80.192 51.43 30.224v58.986l-86.042 51.43v102.617l-49.967 30.224-49.724-30.224V292.98l-89.21-51.43v-58.986l51.429-30.224 86.042 51.43 86.042-51.186ZM86.286 283.962l49.967 30.224v58.986l-49.967-30.224v-58.986Zm274.943 0v58.986l-49.968 30.224v-58.986l49.968-30.224ZM49.968 101.154l51.43 30.224-51.43 30.224v58.986L0 190.364v-58.986l49.968-30.224Zm347.579 0 51.43 30.224v58.986l-51.43 30.224v-58.986l-49.968-30.224 49.968-30.224Zm-173.79 0 51.43 30.224-51.43 30.224-49.967-30.224 49.967-30.224Zm0-101.154 137.472 80.192-49.968 30.224-86.041-51.43-87.748 51.43-49.968-30.224L223.757 0Z" data-color="1"/></svg>