<svg xmlns="http://www.w3.org/2000/svg" xml:space="preserve" style="enable-background:new 0 0 152 42" viewBox="0 0 152 42"><path d="M42.41 5.35h6.99c1.78 0 3.08.48 3.92 1.3.82.71 1.18 1.66 1.18 2.6 0 .36 0 .82-.11 1.18a4.87 4.87 0 0 1-1.07 1.66c-.23.23-.48.36-.71.48.82.23 1.55.71 2.14 1.3.48.59.71 1.3.71 2.37 0 .59-.11 1.3-.36 1.78-.23.48-.71.96-1.18 1.3-.59.36-1.18.59-1.78.82-.71.23-1.55.23-2.37.23h-7.24V5.31h-.11c-.01 0-.01.04-.01.04zm6.4 6.15c.59 0 1.18-.11 1.78-.36.48-.23.71-.71.71-1.18s-.23-.96-.6-1.19c-.48-.36-1.07-.48-1.66-.36h-3.32v3.19h3.08v-.1h.01zm.83 6.06c.59 0 1.18-.11 1.78-.36.48-.23.71-.71.59-1.3 0-.48-.23-.96-.59-1.18-.36-.23-1.07-.48-1.89-.48H45.6v3.32h4.04zm9.95-12.21h3.32v15.17h-3.32V5.35zm8.42 0h3.08l7.11 9.36V5.35h3.3v15.17h-2.83l-7.47-9.61v9.61h-3.19V5.35zm23.58-.11h3.08l6.52 15.28h-3.44l-1.41-3.44h-6.4l-1.41 3.44h-3.44c-.02 0 6.5-15.28 6.5-15.28zm3.55 9-2.01-4.97-2.01 4.97h4.02zm9.59-8.89h3.08l7.11 9.36V5.35h3.32v15.17h-2.85l-7.36-9.61v9.61h-3.3V5.35zm25.59 15.4a8.74 8.74 0 0 1-3.08-.59c-1.89-.82-3.32-2.25-4.15-4.15-.36-.96-.59-2.01-.59-3.08 0-2.01.82-4.03 2.25-5.56.71-.71 1.55-1.3 2.48-1.66 1.07-.48 2.14-.59 3.19-.59.59 0 1.3 0 1.89.11.59.11 1.07.23 1.55.48.48.23.95.48 1.3.71.36.23.82.59 1.18.96l-2.01 2.48c-.59-.48-1.18-.96-1.78-1.3-.59-.34-1.3-.48-2.01-.48-.59 0-1.18.11-1.78.36-.59.23-1.07.59-1.41 1.07-.34.48-.71.96-.95 1.55-.23.59-.36 1.18-.36 1.78 0 .59.11 1.3.36 1.89.25.59.48 1.07.95 1.55.82.96 2.01 1.41 3.19 1.41.71 0 1.55-.11 2.25-.48.59-.36 1.3-.82 1.78-1.3l2.12 2.12-1.18 1.18c-.48.36-.95.59-1.41.82-.48.23-1.07.48-1.66.59-.83.13-1.53.13-2.12.13zm10.2-15.4h11.37v2.96h-8.18v3.08h7.22v2.96h-7.22v3.21H152v2.96h-11.48V5.35zM46.67 35.44c-.82 0-1.66-.11-2.37-.48-.71-.23-1.41-.71-2.14-1.3l1.18-1.3c.48.48.96.71 1.55 1.07.59.23 1.18.36 1.78.36.48 0 .96-.11 1.41-.36.36-.23.48-.59.48-.96 0-.11 0-.36-.11-.48-.11-.11-.23-.36-.36-.48-.23-.11-.48-.23-.71-.36-.36-.11-.82-.23-1.18-.36-.48-.11-1.07-.23-1.55-.48-.36-.11-.82-.36-1.07-.59-.23-.23-.48-.48-.71-.82-.23-.48-.23-.96-.23-1.3 0-.48.11-.82.23-1.3.11-.36.48-.71.71-.96.36-.23.71-.48 1.18-.59.48-.11.96-.23 1.41-.23.71 0 1.41.11 2.14.36.59.23 1.18.59 1.78.96l-.96 1.41c-.48-.36-.96-.59-1.41-.82-.48-.23-.96-.23-1.41-.23-.48 0-.96.11-1.3.36-.23.23-.48.59-.48.96 0 .23 0 .36.11.59.11.11.23.36.36.48.23.11.48.23.82.36.36.11.71.23 1.3.36.48.11.96.23 1.55.48.36.11.71.36 1.07.59.23.23.48.59.59.82.11.36.23.71.23 1.18 0 .48-.11.96-.23 1.3-.23.36-.48.71-.82 1.07-.36.23-.71.48-1.18.59-.59-.01-1.18.1-1.66.1zm5.93-10.77h2.03l3.19 4.97 3.32-4.97h2.01v10.66h-1.89v-7.7l-3.32 4.97h-.11l-3.31-4.97v7.7H52.6V24.67zm16.94-.12h1.78l4.62 10.66h-2.01l-1.07-2.6H67.9l-1.07 2.6h-1.89l4.6-10.66zm2.73 6.52-1.89-4.26-1.78 4.26h3.67zm5.56-6.4h4.74c.59 0 1.18.11 1.78.23.48.11.96.48 1.3.82.23.23.48.59.71 1.07.12.36.23.82.23 1.3 0 .36-.11.82-.23 1.18-.11.36-.36.59-.48.96-.23.23-.48.48-.82.71-.36.23-.71.36-1.07.48l2.85 4.03h-2.26l-2.6-3.67h-2.37v3.67h-1.89l.11-10.78zm4.63 5.21c.59 0 1.18-.11 1.55-.48.36-.36.59-.82.59-1.3 0-.48-.23-.96-.59-1.3-.48-.36-1.07-.48-1.66-.48h-2.73v3.55h2.84zm9-3.55h-3.44v-1.66h8.65v1.66h-3.44v9h-1.89l.12-9zm16.71 9.11c-.71 0-1.41-.11-2.14-.48-1.3-.59-2.37-1.55-2.85-2.85-.23-.71-.48-1.41-.36-2.14 0-.71.11-1.41.36-2.14.48-1.3 1.55-2.37 2.85-2.96.71-.23 1.41-.48 2.25-.48.48 0 .96 0 1.3.11.36.11.71.23 1.07.36.36.11.59.36.95.48.23.23.59.48.82.71l-1.18 1.41c-.36-.36-.82-.71-1.3-.96a3.92 3.92 0 0 0-1.66-.36c-.48 0-.96.11-1.41.23-.48.23-.82.48-1.19.82-.36.36-.59.71-.71 1.18-.11.48-.23.96-.23 1.41 0 .48.11.96.23 1.41.12.46.36.82.71 1.18.36.36.71.59 1.19.82.48.23.95.36 1.41.23.59 0 1.18-.11 1.66-.36.48-.23.96-.59 1.41-1.07l1.18 1.18-.82.82c-.36.23-.59.48-.96.59-.36.11-.71.36-1.18.36-.46.5-.94.5-1.4.5zm6.27-10.77h1.78v4.38h5.1v-4.38h1.89v10.66h-1.89v-4.51h-5.1v4.51h-1.78V24.67zm15.28-.12h1.78l4.62 10.66h-2.01l-1.07-2.6h-4.97l-1.07 2.6h-1.89l4.61-10.66zm2.62 6.52-1.78-4.26-1.78 4.26h3.56zm5.68-6.4h1.91v10.66h-1.91V24.67zm4.73 0h1.66l5.69 7.34v-7.34h1.9v10.66h-1.55l-5.79-7.58v7.58h-1.91V24.67zM21.57 34.62v4.62l-4.03 2.37-3.92-2.37v-4.62l3.92 2.37 4.03-2.37zM0 18.63 3.92 21v7.93l6.74 4.03v4.62L0 31.3V18.63zm35.08 0v12.69L24.3 37.6v-4.62l6.74-4.03v-7.93c.01 0 4.04-2.39 4.04-2.39zm-10.8-6.28 4.03 2.37v4.62l-6.74 4.03v8.04l-3.92 2.37-3.9-2.37v-8.06l-6.99-4.03V14.7l4.03-2.37 6.74 4.03c.01 0 6.75-4.01 6.75-4.01zM6.76 22.64l3.92 2.37v4.62l-3.92-2.37v-4.62zm21.55 0v4.62l-3.92 2.37v-4.62l3.92-2.37zM3.92 8.31l4.03 2.37-4.03 2.37v4.62L0 15.31v-4.62c0-.01 3.92-2.38 3.92-2.38zm27.24 0 4.03 2.37v4.62l-4.03 2.37v-4.62l-3.92-2.37 3.92-2.37zm-13.62 0 4.03 2.37-4.03 2.37-3.92-2.37 3.92-2.37zm0-7.92 10.78 6.29-3.92 2.36-6.74-4.03-6.88 4.03-3.92-2.37L17.54.39z"/></svg>