<svg xmlns="http://www.w3.org/2000/svg" xml:space="preserve" style="enable-background:new 0 0 152 42" viewBox="0 0 152 42"><path d="m24.71 11.86 11.15 28.28L64.57 1.79 38.64 8.43l-2.35 28.93.42-28.29zM83.69 7.84l-5.47 12.75h-3.55L69.22 7.84h3.9l3.46 8.31 3.53-8.31h3.58zM87.22 7.84h3.61v12.75h-3.61V7.84zM98.9 10.7h-3.92V7.84h11.42v2.86h-3.9v9.89h-3.6V10.7zM120.78 17.8v2.79h-10.24V7.84h10v2.79h-6.43v2.15h5.67v2.7h-5.67v2.33h6.67v-.01zM69.52 32.64c0-3.73 2.84-6.49 6.69-6.49 1.86 0 3.53.62 4.66 1.86l-.86.86c-1.04-1.06-2.31-1.51-3.77-1.51-3.08 0-5.39 2.26-5.39 5.28s2.31 5.28 5.39 5.28c1.46 0 2.73-.46 3.77-1.53l.86.86c-1.13 1.24-2.81 1.88-4.68 1.88-3.83 0-6.67-2.75-6.67-6.49zM92.77 26.27v12.75h-1.33v-5.88h-7.98v5.88h-1.35V26.27h1.35v5.68h7.98v-5.68h1.33zM103.28 35.61h-7.11l-1.53 3.41h-1.4l5.83-12.75h1.33l5.83 12.75h-1.42l-1.53-3.41zm-.5-1.09-3.06-6.85-3.06 6.85h6.12zM106.7 26.27h1.35v12.75h-1.35V26.27zM121.22 26.27v12.75h-1.11l-8.2-10.35v10.35h-1.35V26.27h1.11l8.22 10.35V26.27h1.33z"/></svg>